# xmcd
#
# Track frame offsets:
#	150
#	21891
#	46180
#	70337
#	93087
#	113482
#	132110
#	151172
#	170338
#	194958
#	215629
#
# Disc length: 3145 seconds
#
# Revision: 0
# Processed by: cddbd v1.5.1PL0 Copyright (c) Steve Scherf et al.
# Submitted via: dBpowerAMP V4.0
#
DISCID=910c470b
DTITLE=Whitney Houston - Whitney
DYEAR=1987
DGENRE=Soul
TTITLE0=I Wanna dance with somebody
TTITLE1=Just the lonely talking again
TTITLE2=Love will save the day
TTITLE3=Didn't we almost have it all
TTITLE4=So emotional
TTITLE5=Where you are
TTITLE6=Love is a contact sport
TTITLE7=You're still my man
TTITLE8=For the love of you
TTITLE9=Where do broken hearts go
TTITLE10=I know him so well
EXTD=Whitney
EXTT0=
EXTT1=
EXTT2=
EXTT3=
EXTT4=
EXTT5=
EXTT6=
EXTT7=
EXTT8=
EXTT9=
EXTT10=
PLAYORDER=
